<svg width="33" height="46" viewBox="0 0 33 46" fill="none" xmlns="http://www.w3.org/2000/svg">
<path d="M0 0.999999C0 0.447714 0.447715 0 1 0H31.65C32.2023 0 32.65 0.447715 32.65 1V2.28377C32.65 2.83605 32.2023 3.28376 31.65 3.28376H0.999999C0.447715 3.28376 0 2.83605 0 2.28376V0.999999ZM30.7736 5.1602H1.87644V6.75517C3.94052 6.75517 5.62931 8.44396 5.62931 10.508H26.9269C26.9269 8.44396 28.6157 6.75517 30.6797 6.75517V5.1602H30.7736ZM30.023 14.0733C30.023 12.7598 28.8971 11.6339 27.5836 11.6339H5.06638C3.75287 11.6339 2.62701 12.7598 2.62701 14.0733C2.62701 15.3868 3.75287 16.5126 5.06638 16.5126H27.5836C28.8971 16.6065 30.023 15.4806 30.023 14.0733ZM27.3022 45.0345V18.4829H5.34785V45.0345H8.35014V21.7667C8.35014 20.9223 9.0069 20.2655 9.85129 20.2655C10.6957 20.2655 11.3524 20.9223 11.3524 21.7667V45.0345H14.9177V21.7667C14.9177 20.9223 15.5744 20.2655 16.4188 20.2655C17.2632 20.2655 17.92 20.9223 17.92 21.7667V45.0345H21.4852V21.7667C21.4852 20.9223 22.142 20.2655 22.9863 20.2655C23.8307 20.2655 24.4875 20.9223 24.4875 21.7667V45.0345H27.3022Z" fill="black"/>
</svg>
